# xmcd
# Copyright (C) 1995-1998 Ti Kan
#
# Track frame offsets:
#       150
#       14084
#       27711
#       41556
#
# Disc length: 733 seconds
#
# Revision: 0
# Processed by: cddbd v1.5.2PL0 Copyright (c) Steve Scherf et al.
# Submitted via: CD-Import v1.0
#
DISCID=3202db04
DTITLE=Christa - 
DYEAR=14
DGENRE=
TTITLE0=Together Forever
TTITLE1=Au Paradis
TTITLE2=I Still Believe
TTITLE3=Hunter Of Stars
EXTD=
EXTT0=
EXTT1=
EXTT2=
EXTT3=
PLAYORDER=
